<?xml version="1.0" encoding="iso-8859-1"?>
<!-- Generator: Adobe Illustrator 18.0.0, SVG Export Plug-In . SVG Version: 6.00 Build 0)  -->
<!DOCTYPE svg PUBLIC "-//W3C//DTD SVG 1.1//EN" "http://www.w3.org/Graphics/SVG/1.1/DTD/svg11.dtd">
<svg version="1.1" id="Capa_1" xmlns="http://www.w3.org/2000/svg" xmlns:xlink="http://www.w3.org/1999/xlink" x="0px" y="0px"
	 viewBox="0 0 207.922 207.922" style="enable-background:new 0 0 207.922 207.922;" xml:space="preserve">
<g>
	<path d="M200.422,78.242h-14.606c-5.847-13.258-15.618-24.294-28.109-31.736l-0.061-22.77c-0.007-2.648-1.41-5.096-3.69-6.44
		c-2.282-1.345-5.103-1.388-7.422-0.112l-35.426,19.47H69.813C31.318,36.653,0,67.97,0,106.463
		c0,22.503,10.672,43.306,28.752,56.448v21.255c0,4.142,3.358,7.5,7.5,7.5h33.553c4.141,0,7.498-3.355,7.5-7.496l0.004-7.895h37.117
		l-0.03,7.863c-0.007,1.994,0.779,3.909,2.187,5.322c1.407,1.413,3.319,2.207,5.313,2.207h31.567c4.142,0,7.5-3.358,7.5-7.5v-19.815
		c13.702-9.242,23.661-22.996,28.143-38.8h11.316c4.142,0,7.5-3.358,7.5-7.5V85.742C207.922,81.6,204.564,78.242,200.422,78.242z
		 M192.922,110.551h-9.748c-3.607,0-6.704,2.568-7.371,6.114c-2.92,15.523-12.448,29.041-26.14,37.086
		c-2.292,1.347-3.701,3.807-3.701,6.466v16.449h-16.539l0.03-7.863c0.007-1.994-0.779-3.909-2.187-5.322
		c-1.407-1.413-3.319-2.206-5.313-2.206H69.813c-4.141,0-7.498,3.355-7.5,7.496l-0.004,7.895H43.752v-17.712
		c0-2.556-1.302-4.936-3.454-6.315C24.457,142.488,15,125.226,15,106.463c0-30.222,24.589-54.81,54.813-54.81h43.219
		c1.263,0,2.505-0.319,3.612-0.927l26.035-14.309l0.039,14.538c0.008,2.812,1.587,5.383,4.092,6.661
		c12.617,6.435,22.149,17.31,26.842,30.62c1.058,3,3.893,5.006,7.073,5.006h12.197V110.551z"/>
	<path d="M108.998,61.824H69.656c-4.142,0-7.5,3.358-7.5,7.5s3.358,7.5,7.5,7.5h39.342c4.142,0,7.5-3.358,7.5-7.5
		S113.14,61.824,108.998,61.824z"/>
</g>
<g>
</g>
<g>
</g>
<g>
</g>
<g>
</g>
<g>
</g>
<g>
</g>
<g>
</g>
<g>
</g>
<g>
</g>
<g>
</g>
<g>
</g>
<g>
</g>
<g>
</g>
<g>
</g>
<g>
</g>
</svg>
